<?xml version="1.0" encoding="UTF-8"?> <svg xmlns="http://www.w3.org/2000/svg" width="224" height="32" viewBox="0 0 224 32" fill="none"><path d="M0 19.1777C0 12.1671 5.44287 6.86475 12.6384 6.86475C19.1905 6.86475 24.3079 11.2944 25.1362 17.3807H18.9095C18.17 14.6149 15.7296 12.6773 12.6384 12.6773C8.94819 12.6773 6.18236 15.4875 6.18236 19.1777C6.18236 22.8679 8.94819 25.6781 12.6384 25.6781C15.7296 25.6781 18.17 23.7406 18.9095 20.9748H25.1362C24.3079 27.061 19.1905 31.4907 12.6384 31.4907C5.44287 31.4907 0 26.1884 0 19.1777Z" fill="#007E6B"></path><path d="M46.024 19.1777C46.024 15.4875 43.3026 12.6773 39.5681 12.6773C35.8335 12.6773 33.1121 15.4875 33.1121 19.1777C33.1121 22.8679 35.8779 25.6781 39.5681 25.6781C43.2583 25.6781 46.024 22.8679 46.024 19.1777ZM26.9297 19.1777C26.9297 12.1671 32.3726 6.86475 39.5681 6.86475C46.7636 6.86475 52.2064 12.1671 52.2064 19.1777C52.2064 26.1884 46.7636 31.4907 39.5681 31.4907C32.3726 31.4907 26.9297 26.1884 26.9297 19.1777Z" fill="#007E6B"></path><path d="M77.3857 7.42139L67.6092 30.9455H61.3825L51.6504 7.42139H58.4762L64.5624 23.4246L70.6486 7.42139H77.3857Z" fill="#007E6B"></path><path d="M83.2929 16.8802H95.6059C94.822 14.0182 92.3742 12.1325 89.4235 12.1325C86.4728 12.1325 84.0768 14.0256 83.2929 16.8802ZM101.877 21.2582H83.1968C83.9807 24.2532 86.3767 26.1907 89.5122 26.1907C92.0932 26.1907 94.2599 24.9927 95.1843 23.3806H101.596C99.8877 28.18 95.2287 31.5005 89.4235 31.5005C82.228 31.5005 76.7852 26.1981 76.7852 19.1875C76.7852 12.1768 82.228 6.87451 89.4235 6.87451C96.619 6.87451 102.062 12.1768 102.062 19.2318C102.062 19.8308 102.018 20.7109 101.877 21.2582Z" fill="#007E6B"></path><path d="M118.207 7.05184V13.2342C113.778 13.2342 111.337 15.7708 111.337 19.7346V30.9383H105.34V7.41419H111.337V10.8751C113.046 8.47909 115.442 7.04443 118.207 7.04443V7.05184Z" fill="#007E6B"></path><path d="M135.045 12.9086H130.297V30.9381H124.3V12.9086H119.781V7.42139H124.3V1.79367L130.297 0.499512V7.41399H135.045V12.9012V12.9086Z" fill="#007E6B"></path><path d="M150.776 7.05184V13.2342C146.346 13.2342 143.906 15.7708 143.906 19.7346V30.9383H137.908V7.41419H143.906V10.8751C145.614 8.47909 148.01 7.04443 150.776 7.04443V7.05184Z" fill="#007E6B"></path><path d="M157.924 16.8802H170.237C169.453 14.0182 167.005 12.1325 164.054 12.1325C161.104 12.1325 158.708 14.0256 157.924 16.8802ZM176.508 21.2582H157.828C158.612 24.2532 161.008 26.1907 164.143 26.1907C166.724 26.1907 168.891 24.9927 169.815 23.3806H176.227C174.519 28.18 169.86 31.5005 164.054 31.5005C156.859 31.5005 151.416 26.1981 151.416 19.1875C151.416 12.1768 156.859 6.87451 164.054 6.87451C171.25 6.87451 176.693 12.1768 176.693 19.2318C176.693 19.8308 176.648 20.7109 176.508 21.2582Z" fill="#007E6B"></path><path d="M185.039 16.8802H197.352C196.568 14.0182 194.12 12.1325 191.17 12.1325C188.219 12.1325 185.823 14.0256 185.039 16.8802ZM203.623 21.2582H184.943C185.727 24.2532 188.123 26.1907 191.258 26.1907C193.839 26.1907 196.006 24.9927 196.93 23.3806H203.342C201.634 28.18 196.975 31.5005 191.17 31.5005C183.974 31.5005 178.531 26.1981 178.531 19.1875C178.531 12.1768 183.974 6.87451 191.17 6.87451C198.365 6.87451 203.808 12.1768 203.808 19.2318C203.808 19.8308 203.764 20.7109 203.623 21.2582Z" fill="#007E6B"></path><path d="M214.533 22.091H215.982C216.892 22.091 217.572 21.4107 217.572 20.4567C217.572 19.5027 216.892 18.8667 215.982 18.8667H214.533V22.0837V22.091ZM216.167 23.0894L218.933 26.6686H217.572L214.806 23.0894H214.533V26.6686H213.401V17.8314H216.034C217.528 17.8314 218.711 19.0073 218.711 20.4641C218.711 21.921 217.624 23.045 216.174 23.0968H216.167V23.0894ZM222.468 22.5939C222.468 18.6079 219.48 15.6129 215.575 15.6129C211.671 15.6129 208.683 18.6079 208.683 22.5939C208.683 26.5799 211.626 29.5306 215.575 29.5306C219.524 29.5306 222.468 26.5356 222.468 22.5939ZM223.74 22.5939C223.74 27.2603 220.205 30.7508 215.583 30.7508C210.961 30.7508 207.426 27.2603 207.426 22.5939C207.426 17.9276 210.916 14.437 215.583 14.437C220.249 14.437 223.74 17.9276 223.74 22.5939Z" fill="#007E6B"></path></svg> 